{"title":"Maleficent.2014.720p.WEB-DL.x264.AC3 GREEK SUBS","uid":11012195,"size":3142219213,"categoryP":"video","categoryS":"hd___movies","magnet":"?xt=urn:btih:2434649fd0fa017be594299dfa3e17deb5f731c1&amp;dn=Maleficent.2014.720p.WEB-DL.x264.AC3+GREEK+SUBS&amp;tr=udp%3A%2F%2Ftracker.openbittorrent.com%3A80&amp;tr=udp%3A%2F%2Fopen.demonii.com%3A1337&amp;tr=udp%3A%2F%2Ftracker.coppersurfer.tk%3A6969&amp;tr=udp%3A%2F%2Fexodus.desync.com%3A6969","seeders":4,"leechers":0,"uploader":"holyANT","files":-1,"time":1410382247,"description":"H Malefisent, mia omorfh kai agnh kopela, zei mia ideath zwh sto fileirhniko vasileio tou dasous. Mia hmera, omws, enas eisvoleas stratos apeilei thn armonia sth xwra. H Malefisent apodeiknyetai pws einai o ypermaxos twn sympolitwn ths, alla prodidetai kai h agnh ths kardia metatrepetai se petra. Orgismenh gia ekdikhsh, akolouthaei mia epikh maxh me ton diadoxo tou eisvolea vasilia kai katarietai th neogennhth korh tou, Avgh. Kathws h Avgh megalwnei, h Malefisent syneidhtopoiei oti h kopela afth krataei to kleidi gia mia nea epoxh eirhnhs sto vasileio kai isws sthn eftyxia ths idias ths Malefisent.\n\nSthn xilioeipwmenh istoria ths Wraias Koimwmenhs oloi kseroun thn tyxh ths prigkipissas, elaxistoi omws thymoyntai to onoma ths magissas. Sthn metafora tou paramythioy apo thn Disney to 1959 h Malefisent, h kakia magissa, htan mia emvlhmatikh morfh ths istorias. Panw apo miso aiwna einai h wra gia na mathoume thn istoria ths kai na katalavoume ti ths synevh kai thn odhghse na riksei thn skoteinh ths katara.\n\n\n\n\n\nApodosh Dialogwn Eks Akohs - Xronismos:\ngrgrs ~ Morgan La Fey(thanks)\n\n &lt;a href=&quot;\nhttp://bayimg.com/GAAgCAAGF&quot; rel=&quot;nofollow&quot; target=&quot;_NEW&quot;&gt;\nhttp://bayimg.com/GAAgCAAGF&lt;/a&gt;\n\n\nEidos Tainias : Action | Adventure | Family\nXwra Paragwghs : USA | UK\nGlwssa :  English\nYpotitloi : Ellhnikoi se ksexwristo arxeio\nDiarkeia : 97 min\nSkhnothesia : Robert Stromberg\nSenario : Linda Woolverton, Charles Perrault\nHthopoioi : Angelina Jolie, Elle Fanning, Juno Temple, Brenton Thwaites\n\nGeneral\nUnique ID : 209079617286982512260200694512698471123 (0x9D4B45028016C9EA98CCD618D95332D3)\nComplete name : Maleficent.2014.720p.WEB-DL.x264.AC3-EVO/Maleficent.2014.720p.WEB-DL.x264.AC3-EVO.mkv\nFormat : Matroska\nFormat version : Version 4 / Version 2\nFile size : 2.93 GiB\nDuration : 1h 37mn\nOverall bit rate : 4 282 Kbps\nEncoded date : UTC 2014-09-04 23:54:51\nWriting application : mkvmerge v6.7.0 ('Back to the Ground') 64bit built on Jan 8 2014 15:10:52\nWriting library : libebml v1.3.0 + libmatroska v1.4.1\n\nVideo\nID : 1\nFormat : AVC\nFormat/Info : Advanced Video Codec\nFormat profile : &lt;a class=&quot;__cf_email__&quot; href=&quot;/cdn-cgi/l/email-protection&quot; data-cfemail=&quot;9bd6faf2f5dbd7a8b5aa&quot;&gt;[email&amp;#160;protected]&lt;/a&gt;&lt;script cf-hash='f9e31' type=&quot;text/javascript&quot;&gt;\n/* &lt;![CDATA[ */!function(){try{var t=&quot;currentScript&quot;in document?document.currentScript:function(){for(var t=document.getElementsByTagName(&quot;script&quot;),e=t.length;e--;)if(t[e].getAttribute(&quot;cf-hash&quot;))return t[e]}();if(t&amp;&amp;t.previousSibling){var e,r,n,i,c=t.previousSibling,a=c.getAttribute(&quot;data-cfemail&quot;);if(a){for(e=&quot;&quot;,r=parseInt(a.substr(0,2),16),n=2;a.length-n;n+=2)i=parseInt(a.substr(n,2),16)^r,e+=String.fromCharCode(i);e=document.createTextNode(e),c.parentNode.replaceChild(e,c)}}}catch(u){}}();/* ]]&gt; */&lt;/script&gt;\nFormat settings, CABAC : No\nFormat settings, ReFrames : 2 frames\nCodec ID : V_MPEG4/ISO/AVC\nDuration : 1h 37mn\nBit rate : 3 813 Kbps\nWidth : 1 280 pixels\nHeight : 532 pixels\nDisplay aspect ratio : 2.40:1\nFrame rate : 23.976 fps\nColor space : YUV\nChroma subsampling : 4:2:0\nBit depth : 8 bits\nScan type : Progressive\nBits/(Pixel*Frame) : 0.234\nStream size : 2.61 GiB (89%)\nTitle : EVO\nLanguage : English\nDefault : Yes\nForced : No\nColor primaries : BT.709-5, BT.1361, IEC 61966-2-4, SMPTE RP177\nTransfer characteristics : BT.709-5, BT.1361\nMatrix coefficients : BT.709-5, BT.1361, IEC 61966-2-4 709, SMPTE RP177\n\nAudio\nID : 2\nFormat : AC-3\nFormat/Info : Audio Coding 3\nMode extension : CM (complete main)\nCodec ID : A_AC3\nDuration : 1h 37mn\nBit rate mode : Constant\nBit rate : 384 Kbps\nChannel(s) : 6 channels\nChannel positions : Front: L C R, Side: L R, LFE\nSampling rate : 48.0 KHz\nBit depth : 16 bits\nCompression mode : Lossy\nStream size : 269 MiB (9%)\nLanguage : English\nDefault : Yes\nForced : No\n\nMenu\n00:00:00.000 : en:1\n00:03:01.000 : en:2\n00:08:11.000 : en:3\n00:14:01.000 : en:4\n00:19:11.000 : en:5\n00:25:58.000 : en:6\n00:33:10.000 : en:7\n00:38:32.000 : en:8\n00:43:22.000 : en:9\n00:46:57.000 : en:10\n00:51:13.000 : en:11\n00:54:19.000 : en:12\n00:58:38.000 : en:13\n01:01:59.000 : en:14\n01:05:11.000 : en:15\n01:09:57.000 : en:16\n01:15:41.000 : en:17\n01:17:44.000 : en:18\n01:25:44.000 : en:19\n01:28:39.000 : en:20\n\n","torrent":{"xt":"urn:btih:2434649fd0fa017be594299dfa3e17deb5f731c1","amp;dn":"Maleficent.2014.720p.WEB-DL.x264.AC3+GREEK+SUBS","amp;tr":["udp%3A%2F%2Ftracker.openbittorrent.com%3A80","udp%3A%2F%2Fopen.demonii.com%3A1337","udp%3A%2F%2Ftracker.coppersurfer.tk%3A6969","udp%3A%2F%2Fexodus.desync.com%3A6969"],"infoHash":"2434649fd0fa017be594299dfa3e17deb5f731c1","infoHashBuffer":{"type":"Buffer","data":[36,52,100,159,208,250,1,123,229,148,41,157,250,62,23,222,181,247,49,193]},"announce":[],"urlList":[]}}